# xmcd CD database file
#
# Track frame offsets:
#	150
#	16514
#	31442
#	48392
#	69372
#	83545
#	98431
#	110962
#	124505
#	137003
#	149878
#	167576
#
# Disc length: 2407 seconds
#
# Revision: 2
# Processed by: cddbd v1.4PL0 Copyright (c) Steve Scherf et al.
# Submitted via: CDex 1.50beta9
#
DISCID=9809650c
DTITLE=TT-Band - New Moon
DYEAR=2003
DGENRE=Country
TTITLE0=Love story
TTITLE1=Breaking it
TTITLE2=The heart ia a lonley hunter
TTITLE3=New moon
TTITLE4=How long
TTITLE5=Let's get reckless tonight
TTITLE6=Flowers won't grow
TTITLE7=Buckaroo
TTITLE8=What part of no
TTITLE9=Wrong night
TTITLE10=Hei' Cinderella
TTITLE11=Make something of it
EXTD=YEAR: 2003
EXTT0=
EXTT1=
EXTT2=
EXTT3=
EXTT4=
EXTT5=
EXTT6=
EXTT7=
EXTT8=
EXTT9=
EXTT10=
EXTT11=
PLAYORDER=
